<?xml version="1.0" encoding="utf-8" ?>
<svg xmlns="http://www.w3.org/2000/svg" xmlns:xlink="http://www.w3.org/1999/xlink" width="18" height="17">
	<path fill="#011F5B" d="M4.75 0L4.75 0.75L4.75 2L9.25 2L9.25 0.75L9.25 0L10.75 0L10.75 0.75L10.75 2L14 2L14 4.5L14 6L13.5 6L12.5 6L9 6L1.5 6L1.5 14.5L8.890625 14.5C9.2749996 15.0875 9.765625 15.596875 10.3375 16L1.5 16L0 16L0 14.5L0 6L0 4.5L0 2L3.25 2L3.25 0.75L3.25 0L4.75 0ZM9 11.5C9 9.8923044 9.8576956 8.4067335 11.25 7.6028857C12.642304 6.7990379 14.357696 6.7990379 15.75 7.6028857C17.142305 8.4067335 18 9.8923044 18 11.5C18 13.107696 17.142305 14.593266 15.75 15.397115C14.357696 16.200962 12.642304 16.200962 11.25 15.397115C9.8576956 14.593266 9 13.107696 9 11.5ZM14 9L13 9L13 9.5L13 11.5L13 12L13.5 12L15 12L15.5 12L15.5 11L15 11L14 11L14 9.5L14 9Z"/>
</svg>
