<svg width="248" height="60" viewBox="0 0 248 60" fill="none" xmlns="http://www.w3.org/2000/svg">
<path fill-rule="evenodd" clip-rule="evenodd" d="M72.9255 12.3048L72.2855 14.9675C72.2855 15.4356 71.9026 15.52 71.3053 15.7133C70.4962 15.9901 69.0033 16.3508 67.1494 16.3508C62.7795 16.3508 58.8364 14.2645 58.8364 8.55642C58.8364 5.27658 61.6293 0.932983 67.3632 0.932983C69.4305 0.932983 70.4107 1.31555 71.455 1.65692C72.0523 1.8482 72.2855 2.14734 72.2855 2.48769V5.23538H71.7315C71.6689 3.5306 70.5813 1.67778 67.1932 1.67778C63.2062 1.67778 61.2876 4.55265 61.2652 8.38599C61.2449 12.6248 63.1849 15.606 67.5338 15.606C70.3674 15.606 71.6898 13.9867 72.3721 12.3048H72.9255Z" fill="#1D2658"/>
<path fill-rule="evenodd" clip-rule="evenodd" d="M79.086 16.3508C82.496 16.3508 84.7772 13.7746 84.7772 10.686C84.7772 7.00225 82.134 5.19165 79.47 5.19165C75.9306 5.19165 73.7788 7.89712 73.7788 10.857C73.7788 14.498 76.3573 16.3508 79.086 16.3508M79.4277 15.606C77.1028 15.606 75.8884 13.4978 75.8884 10.772C75.8884 7.49216 77.339 5.93746 79.1706 5.93746C81.6656 5.93746 82.6666 8.42926 82.6666 10.7923C82.6666 14.0946 81.1961 15.606 79.4277 15.606" fill="#1D2658"/>
<path fill-rule="evenodd" clip-rule="evenodd" d="M89.2108 0.486256V13.4336C89.2108 15.35 89.1038 15.2864 90.916 15.5423V16.0953H85.5869V15.5423C87.3986 15.2864 87.2922 15.35 87.2922 13.4336V2.57259C87.2922 1.99772 87.0366 1.636 86.4831 1.636H85.5869V1.08148C86.866 1.03925 88.2301 0.783359 89.167 0.442505L89.2108 0.486256Z" fill="#1D2658"/>
<path fill-rule="evenodd" clip-rule="evenodd" d="M95.1775 0.486256V13.4336C95.1775 15.35 95.0716 15.2864 96.8833 15.5423V16.0953H91.5547V15.5423C93.3674 15.2864 93.2594 15.35 93.2594 13.4336V2.57259C93.2594 1.99772 93.0038 1.636 92.4503 1.636H91.5547V1.08148C92.8332 1.03925 94.1974 0.783359 95.1353 0.442505L95.1775 0.486256Z" fill="#1D2658"/>
<path fill-rule="evenodd" clip-rule="evenodd" d="M106.625 10.2184V9.62212C106.625 6.93904 105.07 5.19153 102.661 5.19153C99.0371 5.19153 97.6938 8.23785 97.6938 10.7296C97.6938 12.3261 98.4831 14.009 99.1216 14.7324C100.847 16.6285 102.639 16.3507 103.173 16.3507H103.833L106.625 15.0315L106.285 14.3712C105.773 14.6266 105.07 15.1373 103.897 15.1373C100.847 15.1373 99.7179 12.6461 99.7179 10.2184H106.625ZM99.7178 9.47255C99.7178 6.78896 101.105 5.93734 102.533 5.93734C103.726 5.93734 104.77 6.87443 104.77 8.23785C104.77 9.17494 104.173 9.47255 103.705 9.47255H99.7178Z" fill="#1D2658"/>
<path fill-rule="evenodd" clip-rule="evenodd" d="M112.145 5.78777C113.531 5.74605 114.297 7.32161 114.297 9.28127C114.297 10.2601 113.979 11.7939 112.55 11.858C110.739 11.9211 110.226 9.81341 110.226 8.38589C110.226 7.34298 110.674 5.85238 112.145 5.78777V5.78777ZM117.602 6.40538L118.178 5.46828L117.965 5.19153C116.964 5.44742 115.726 5.57563 114.341 5.53238C113.808 5.27649 113.147 5.19153 112.379 5.19153C110.376 5.19153 108.202 6.40538 108.202 8.66366C108.202 10.3664 108.992 11.389 110.61 12.1989L108.586 13.8599C108.393 14.8179 108.992 15.35 109.951 15.4782V15.5199L107.712 16.7134C107.391 16.9042 107.434 17.3524 107.434 17.6714C107.434 20.0151 109.717 21.4197 112.464 21.4197C115.299 21.4197 117.453 19.6102 117.453 17.4379C117.453 15.8837 116.344 14.8387 114.83 14.5416L112.871 14.157C111.591 13.9235 110.717 13.8177 110.717 13.3064C110.717 12.9437 111.037 12.6461 111.314 12.4324C111.484 12.4543 111.783 12.4756 112.187 12.4756C114.767 12.4756 116.322 10.6223 116.322 9.00452C116.322 7.91785 115.896 6.85357 115.407 6.40538H117.602ZM112.976 16.0312C114.276 16.2662 115.769 16.4789 115.769 18.2671C115.769 19.4392 114.555 20.6744 112.592 20.6744C110.397 20.6744 109.182 19.482 109.182 17.9059C109.182 16.7989 110.055 16.1808 110.909 15.6695L112.976 16.0312Z" fill="#1D2658"/>
<path fill-rule="evenodd" clip-rule="evenodd" d="M127.344 10.2184V9.62212C127.344 6.93904 125.788 5.19153 123.378 5.19153C119.756 5.19153 118.414 8.23785 118.414 10.7296C118.414 12.3261 119.201 14.009 119.84 14.7324C121.565 16.6285 123.359 16.3507 123.891 16.3507H124.551L127.344 15.0315L127.001 14.3712C126.491 14.6266 125.788 15.1373 124.614 15.1373C121.565 15.1373 120.438 12.6461 120.438 10.2184H127.344ZM120.438 9.47255C120.438 6.78896 121.823 5.93734 123.251 5.93734C124.443 5.93734 125.489 6.87443 125.489 8.23785C125.489 9.17494 124.893 9.47255 124.424 9.47255H120.438Z" fill="#1D2658"/>
<path fill-rule="evenodd" clip-rule="evenodd" d="M137.744 13.4338C137.744 15.4143 137.661 15.308 139.578 15.5425V16.0955H133.843V15.5425C135.762 15.308 135.676 15.4143 135.676 13.4338V3.85119C135.676 1.87016 135.762 1.97649 133.843 1.74145V1.18896H139.578V1.74145C137.661 1.97649 137.744 1.87016 137.744 3.85119V7.53394H145.227V3.85119C145.227 1.87016 145.31 1.97649 143.393 1.74145V1.18896H149.126V1.74145C147.208 1.97649 147.295 1.87016 147.295 3.85119V13.4338C147.295 15.4143 147.208 15.308 149.126 15.5425V16.0955H143.393V15.5425C145.31 15.308 145.227 15.4143 145.227 13.4338V8.40795H137.744V13.4338Z" fill="#1D2658"/>
<path fill-rule="evenodd" clip-rule="evenodd" d="M155.457 16.3508C158.868 16.3508 161.148 13.7746 161.148 10.686C161.148 7.00225 158.506 5.19165 155.841 5.19165C152.304 5.19165 150.149 7.89712 150.149 10.857C150.149 14.498 152.729 16.3508 155.457 16.3508M155.799 15.606C153.475 15.606 152.261 13.4978 152.261 10.772C152.261 7.49216 153.709 5.93746 155.542 5.93746C158.036 5.93746 159.039 8.42926 159.039 10.7923C159.039 14.0946 157.567 15.606 155.799 15.606" fill="#1D2658"/>
<path fill-rule="evenodd" clip-rule="evenodd" d="M170.741 16.3508C170.421 15.9901 170.25 15.3288 170.25 14.7111L168.374 15.7983C167.478 16.3086 167.009 16.3508 166.393 16.3508C163.94 16.3508 163.281 14.5835 163.281 12.199V7.53388C163.281 6.55507 162.62 6.64003 161.574 6.64003V6.08652C162.726 6.04379 164.154 5.78789 165.156 5.19165L165.2 5.23489V12.0062C165.2 13.6041 165.454 15.0942 167.33 15.0942C169.311 15.0942 170.25 14.0299 170.25 10.8778V7.53388C170.25 6.55507 169.589 6.64003 168.545 6.64003V6.08652C169.717 6.04379 171.143 5.78789 172.126 5.19165L172.168 5.23489V13.3487C172.168 14.4349 172.231 15.3501 173.662 14.7966L173.788 15.3934L170.741 16.3508Z" fill="#1D2658"/>
<path fill-rule="evenodd" clip-rule="evenodd" d="M174.811 13.3917H175.366C175.344 14.8823 176.453 15.6058 177.688 15.6058C178.925 15.6058 179.65 14.6687 179.65 13.7743C179.65 12.39 178.542 11.9001 177.264 10.9854C175.537 9.72833 174.833 9.38696 174.833 7.98234C174.833 6.19311 176.495 5.19141 178.242 5.19141C178.925 5.19141 179.776 5.23516 180.759 5.55363V7.6832H180.204C180.139 6.95927 179.501 5.93722 178.286 5.93722C177.391 5.93722 176.644 6.46986 176.644 7.30063C176.644 8.32319 177.732 8.8767 179.288 9.98371C181.292 11.3894 181.548 12.1769 181.548 13.1572C181.548 15.3723 179.543 16.3511 177.688 16.3511C176.515 16.3511 175.6 16.1603 174.811 15.7762V13.3917Z" fill="#1D2658"/>
<path fill-rule="evenodd" clip-rule="evenodd" d="M191.479 10.2184V9.62212C191.479 6.93904 189.924 5.19153 187.514 5.19153C183.892 5.19153 182.548 8.23785 182.548 10.7296C182.548 12.3261 183.339 14.009 183.978 14.7324C185.704 16.6285 187.494 16.3507 188.027 16.3507H188.688L191.479 15.0315L191.138 14.3712C190.626 14.6266 189.924 15.1373 188.751 15.1373C185.704 15.1373 184.573 12.6461 184.573 10.2184H191.479ZM184.573 9.47255C184.573 6.78896 185.96 5.93734 187.389 5.93734C188.581 5.93734 189.624 6.87443 189.624 8.23785C189.624 9.17494 189.028 9.47255 188.559 9.47255H184.573Z" fill="#1D2658"/>
<path fill-rule="evenodd" clip-rule="evenodd" d="M192.759 13.3917H193.313C193.293 14.8823 194.399 15.6058 195.636 15.6058C196.874 15.6058 197.597 14.6687 197.597 13.7743C197.597 12.39 196.489 11.9001 195.21 10.9854C193.484 9.72833 192.781 9.38696 192.781 7.98234C192.781 6.19311 194.443 5.19141 196.191 5.19141C196.874 5.19141 197.724 5.23516 198.705 5.55363V7.6832H198.153C198.089 6.95927 197.449 5.93722 196.234 5.93722C195.337 5.93722 194.592 6.46986 194.592 7.30063C194.592 8.32319 195.678 8.8767 197.234 9.98371C199.238 11.3894 199.495 12.1769 199.495 13.1572C199.495 15.3723 197.491 16.3511 195.636 16.3511C194.463 16.3511 193.546 16.1603 192.759 15.7762V13.3917Z" fill="#1D2658"/>
<path fill-rule="evenodd" clip-rule="evenodd" d="M65.3836 27.885C65.4183 27.942 65.5084 28.0351 65.6535 28.1638C65.7966 28.2925 65.8689 28.4278 65.8689 28.5677C65.8689 28.7199 65.7533 28.7967 65.5247 28.7967C65.461 28.7967 65.3363 28.7901 65.1494 28.7697C64.9615 28.7545 64.8088 28.7448 64.6906 28.7448C64.017 28.7448 63.2471 29.1004 62.3825 29.8065C61.5174 30.5142 61.0846 31.6105 61.0846 33.095C61.0846 34.2829 61.5016 35.3436 62.3382 36.2741C63.1733 37.2061 64.1519 37.6701 65.2737 37.6701C66.3949 37.6701 67.453 37.2946 68.4494 36.5402C69.4449 35.7857 69.9434 34.8725 69.9434 33.7955C69.9434 32.9912 69.7092 32.3517 69.2412 31.8796C68.7748 31.4085 68.2789 31.172 67.7559 31.172C67.3435 31.172 66.9952 31.3053 66.7091 31.5708C66.4229 31.8359 66.2803 32.1869 66.2803 32.6209C66.2803 32.9093 66.4229 33.1611 66.7091 33.3753C66.8618 33.4888 66.9392 33.5824 66.9392 33.6592C66.9392 33.7574 66.8878 33.8474 66.7864 33.9263C66.6836 34.0082 66.5802 34.0484 66.4789 34.0484C66.2325 34.0484 66.0069 33.908 65.8027 33.6276C65.5975 33.3453 65.4957 32.9933 65.4957 32.5705C65.4957 32.0653 65.6158 31.579 65.8582 31.1186C66.1016 30.6561 66.5375 30.1855 67.1678 29.7032C67.7987 29.2205 68.5126 28.872 69.3105 28.6563C70.1073 28.4411 71.1537 28.3342 72.4491 28.3342C73.6278 28.3342 74.5821 28.2076 75.3138 27.9537C76.0449 27.7014 76.4105 27.299 76.4105 26.7516C76.4105 26.69 76.3754 26.5933 76.3062 26.4661C76.2359 26.3379 76.2023 26.2362 76.2023 26.1594C76.2023 25.9157 76.3499 25.7951 76.6463 25.7951C76.8184 25.7951 76.9584 25.8938 77.0679 26.0927C77.1774 26.2911 77.2329 26.5048 77.2329 26.7332C77.2329 27.1636 77.0572 27.6017 76.7069 28.0437C76.3566 28.4863 75.8703 28.875 75.2491 29.2123C74.6274 29.5496 73.9339 29.775 73.1675 29.8849C72.4002 29.9968 71.3406 30.0517 69.9877 30.0517C69.2168 30.0517 68.7336 30.0919 68.536 30.1682C68.3374 30.2456 68.2397 30.3092 68.2397 30.356C68.2397 30.4028 68.3013 30.4257 68.426 30.4257C69.0447 30.4257 69.6262 30.7497 70.1715 31.4004C70.7168 32.0501 70.9903 32.8625 70.9903 33.8372C70.9903 34.6909 70.7123 35.4667 70.1578 36.1683C69.6027 36.8709 68.8537 37.4264 67.9112 37.8375C66.9687 38.2495 66.0435 38.4551 65.1362 38.4551C63.3321 38.4551 61.8448 37.9194 60.6732 36.8424C59.5021 35.7654 58.9165 34.434 58.9165 32.8391C58.9165 31.5988 59.4165 30.4908 60.4166 29.514C61.4166 28.5398 62.573 27.9969 63.8882 27.885C64.0119 27.8718 64.0745 27.8438 64.0745 27.8016C64.0745 27.7614 64.0262 27.6729 63.9289 27.5431L61.1406 23.6172C61.0775 23.5323 61.0469 23.4636 61.0469 23.4081C61.0469 23.2682 61.1803 23.1848 61.4471 23.1532C61.7129 23.1212 62.1788 23.1064 62.8438 23.1064H67.6546C67.924 23.1064 68.1246 23.1263 68.257 23.168C68.3883 23.2097 68.4902 23.3181 68.5625 23.4951C68.6353 23.6706 68.6725 23.952 68.6725 24.3401C68.6725 24.9842 68.6251 25.3749 68.5304 25.5118C68.4357 25.6517 68.2962 25.7203 68.1134 25.7203C67.924 25.7203 67.7615 25.5698 67.6261 25.2696C67.4988 24.9974 67.3588 24.8606 67.2045 24.8606H64.2853C63.8709 24.8606 63.6641 24.9872 63.6641 25.2381C63.6641 25.3647 63.712 25.4965 63.8103 25.6354L65.3836 27.885Z" fill="#1D2658"/>
<path fill-rule="evenodd" clip-rule="evenodd" d="M88.4589 33.1781L89.3765 35.9243C89.7176 36.8624 89.5893 37.565 88.2451 37.565V38.1195H93.2122V37.565C92.2956 37.565 91.9555 36.8833 91.486 35.6923C90.762 33.7957 88.5862 27.2361 87.1381 22.9556H85.9441C84.1747 27.6619 81.6812 34.6255 80.7647 36.4997C80.4235 37.2028 79.8043 37.565 79.23 37.565V38.1195H83.1089V37.565C82.171 37.565 81.7662 36.8624 82.0427 36.0327L83.0239 33.1781H88.4589ZM83.3442 32.3687L85.8799 25.4484H85.9222L88.1824 32.3687H83.3442Z" fill="#1D2658"/>
<path fill-rule="evenodd" clip-rule="evenodd" d="M102.633 37.0325L99.799 38.3745C99.2654 38.3745 96.7938 38.6304 95.1094 36.7354C94.4266 35.9891 93.6807 34.328 93.6807 32.7525C93.6807 29.3877 96.2597 27.2144 99.4151 27.2144C100.203 27.2144 101.334 27.3644 102.037 27.7699L102.783 29.1954C102.847 29.2803 102.847 29.3658 102.783 29.409L102.037 29.8766C101.93 29.9417 101.803 29.9615 101.717 29.8985L100.629 28.6429C100.332 28.301 99.7557 27.9607 98.9466 27.9607C97.6879 27.9607 95.7912 28.9619 95.7912 32.0484C95.7912 34.3072 96.8152 37.1612 99.8846 37.1612C101.056 37.1612 101.738 36.6509 102.271 36.3732L102.633 37.0325Z" fill="#1D2658"/>
<path fill-rule="evenodd" clip-rule="evenodd" d="M112.949 37.4161L112.822 36.8203C111.394 37.3728 111.329 36.4586 111.329 35.3715V30.6443C111.329 28.3224 110.243 27.2144 107.748 27.2144C106.811 27.2144 106.085 27.3639 105.107 27.7465C104.85 27.832 104.615 28.0019 104.488 28.4079L104.168 29.5357C104.146 29.6863 104.211 29.7713 104.338 29.813L105.062 29.9834C105.191 30.0048 105.276 30.0048 105.341 29.8985C105.852 29.1323 106.3 27.9607 107.6 27.9607C108.921 27.9607 109.41 29.1954 109.41 31.0482L107.109 31.9431C104.615 32.9229 103.421 33.5619 103.421 35.5851C103.421 37.1388 104.595 38.374 106.001 38.374C106.661 38.374 107.259 38.1191 107.748 37.7986L109.41 36.6916C109.41 37.3311 109.581 37.9904 109.902 38.374L112.949 37.4161ZM109.41 33.5186C109.41 36.3294 108.091 37.0544 106.982 37.0544C106.001 37.0544 105.34 36.2444 105.34 35.2443C105.34 33.0709 107.535 32.5602 109.41 31.8576V33.5186Z" fill="#1D2658"/>
<path fill-rule="evenodd" clip-rule="evenodd" d="M125.184 37.4161L125.057 36.8204C123.628 37.3729 123.565 36.4587 123.565 35.3715V22.5086L123.521 22.4653C122.584 22.8072 121.219 23.0631 119.942 23.1048V23.6588H120.815C121.39 23.6588 121.647 24.0211 121.647 24.5954V27.5766C120.879 27.2571 119.92 27.2144 119.238 27.2144C116.359 27.2144 113.59 29.1537 113.59 32.9229C113.59 35.3491 115.081 38.3741 118.598 38.3741C119.109 38.3741 119.386 38.2041 120.217 37.7366L121.647 36.8835C121.667 37.5229 121.796 37.9905 122.116 38.3741L125.184 37.4161ZM121.647 35.1797C121.647 36.2231 120.326 37.1612 119.194 37.1612C116.595 37.1612 115.614 34.2853 115.614 32.0718C115.614 30.4093 116.551 27.9607 118.897 27.9607C120.217 27.9607 121.091 28.3224 121.647 29.2392V35.1797Z" fill="#1D2658"/>
<path fill-rule="evenodd" clip-rule="evenodd" d="M134.755 32.2418V31.6461C134.755 28.962 133.199 27.2145 130.791 27.2145C127.167 27.2145 125.824 30.2603 125.824 32.7526C125.824 34.35 126.612 36.0329 127.252 36.7553C128.978 38.6514 130.769 38.3741 131.302 38.3741H131.963L134.755 37.0545L134.414 36.3931C133.901 36.6505 133.199 37.1613 132.027 37.1613C128.978 37.1613 127.849 34.6685 127.849 32.2418H134.755ZM127.849 31.496C127.849 28.8134 129.234 27.9603 130.662 27.9603C131.855 27.9603 132.9 28.8984 132.9 30.2603C132.9 31.1984 132.305 31.496 131.835 31.496H127.849Z" fill="#1D2658"/>
<path fill-rule="evenodd" clip-rule="evenodd" d="M139.187 35.4565C139.187 37.3729 139.082 37.3094 140.893 37.5647V38.1193H135.564V37.5647C137.377 37.3094 137.269 37.3729 137.269 35.4565V29.5577C137.269 28.5779 136.608 28.6629 135.564 28.6629V28.1104C136.737 28.0676 138.165 27.8112 139.146 27.2145L139.187 27.2572V29.0887H139.231C139.913 28.0254 141.341 27.2145 143.046 27.2145C144.923 27.2145 145.369 28.0676 145.86 29.0887C146.733 28.0254 148.034 27.2145 149.74 27.2145C152.127 27.2145 152.746 28.7916 152.746 31.0051V35.4565C152.746 37.3729 152.638 37.3094 154.451 37.5647V38.1193H149.121V37.5647C150.934 37.3094 150.827 37.3729 150.827 35.4565V31.5591C150.827 29.9617 150.72 28.3225 148.716 28.3225C146.882 28.3225 145.967 29.4087 145.967 32.9861V35.4565C145.967 37.3729 145.86 37.3094 147.671 37.5647V38.1193H142.343V37.5647C144.154 37.3094 144.049 37.3729 144.049 35.4565V31.5591C144.049 29.9617 143.943 28.3225 141.937 28.3225C140.19 28.3225 139.187 29.2387 139.187 32.9861V35.4565Z" fill="#1D2658"/>
<path fill-rule="evenodd" clip-rule="evenodd" d="M157.519 23.3381C158.202 23.3381 158.777 23.914 158.777 24.5754C158.777 25.2342 158.202 25.8304 157.542 25.8304C156.858 25.8304 156.283 25.278 156.283 24.5754C156.283 23.8942 156.858 23.3381 157.519 23.3381V23.3381ZM158.712 27.2574V35.4563C158.712 37.3732 158.605 37.3091 160.419 37.565V38.1195H155.089V37.565C156.901 37.3091 156.795 37.3732 156.795 35.4563V29.558C156.795 28.5781 156.133 28.6631 155.089 28.6631V28.1106C156.262 28.0674 157.69 27.8115 158.671 27.2142L158.712 27.2574Z" fill="#1D2658"/>
<path fill-rule="evenodd" clip-rule="evenodd" d="M170.181 37.0325L167.346 38.3745C166.812 38.3745 164.341 38.6304 162.657 36.7354C161.974 35.9891 161.227 34.328 161.227 32.7525C161.227 29.3877 163.807 27.2144 166.962 27.2144C167.751 27.2144 168.88 27.3644 169.584 27.7699L170.329 29.1954C170.394 29.2803 170.394 29.3658 170.329 29.409L169.584 29.8766C169.477 29.9417 169.35 29.9615 169.265 29.8985L168.177 28.6429C167.88 28.301 167.304 27.9607 166.493 27.9607C165.235 27.9607 163.339 28.9619 163.339 32.0484C163.339 34.3072 164.361 37.1612 167.432 37.1612C168.603 37.1612 169.284 36.6509 169.817 36.3732L170.181 37.0325Z" fill="#1D2658"/>
<path fill-rule="evenodd" clip-rule="evenodd" d="M183.821 26.3847C183.651 24.8941 182.841 23.7006 181.136 23.7006C179.9 23.7006 178.791 24.3401 178.791 25.9162C178.791 27.4062 180.283 28.3011 182.415 29.8986C184.674 31.5809 185.4 32.6676 185.4 34.4355C185.4 36.969 182.799 38.3741 180.241 38.3741C178.876 38.3741 177.704 38.1192 176.597 37.6939C176.512 37.6517 176.447 37.5647 176.447 37.3948V34.3281H177C177.235 36.6917 178.791 37.6288 180.433 37.6288C181.947 37.6288 183.184 36.4801 183.184 34.9244C183.184 33.5406 182.437 32.4122 179.239 30.3025C178.087 29.5358 176.659 28.7066 176.659 26.3847C176.659 24.4683 178.791 22.9558 181.243 22.9558C182.159 22.9558 183.374 23.0632 184.228 23.3603C184.356 23.4035 184.375 23.4885 184.375 23.5953V26.3847H183.821Z" fill="#1D2658"/>
<path fill-rule="evenodd" clip-rule="evenodd" d="M195.352 32.2418V31.6461C195.352 28.962 193.797 27.2145 191.388 27.2145C187.765 27.2145 186.422 30.2603 186.422 32.7526C186.422 34.35 187.212 36.0329 187.851 36.7553C189.576 38.6514 191.368 38.3741 191.901 38.3741H192.561L195.352 37.0545L195.012 36.3931C194.502 36.6505 193.797 37.1613 192.625 37.1613C189.576 37.1613 188.448 34.6685 188.448 32.2418H195.352ZM188.448 31.496C188.448 28.8134 189.833 27.9603 191.261 27.9603C192.456 27.9603 193.5 28.8984 193.5 30.2603C193.5 31.1984 192.901 31.496 192.434 31.496H188.448Z" fill="#1D2658"/>
<path fill-rule="evenodd" clip-rule="evenodd" d="M201.599 29.239C201.385 29.1322 201.131 29.1535 200.81 29.1535C199.937 29.1535 199.786 30.6009 199.786 32.1332V35.4568C199.786 36.1599 199.786 36.4585 199.873 36.9693C199.958 37.4159 200.725 37.4582 201.876 37.565V38.1195H196.164V37.565C197.975 37.3091 197.868 37.3732 197.868 35.4568V29.558C197.868 28.5782 197.208 28.6631 196.184 28.6631V28.1106C197.335 28.0674 198.764 27.8115 199.745 27.2142L199.786 27.2575V29.1734L200.896 28.0257C201.408 27.4915 201.706 27.2142 202.066 27.2142C202.261 27.2142 202.516 27.2361 202.857 27.8552L203.475 28.9404C203.538 29.0686 203.432 29.1535 203.305 29.239L202.686 29.6429C202.557 29.7279 202.472 29.6862 202.365 29.6211L201.599 29.239Z" fill="#1D2658"/>
<path fill-rule="evenodd" clip-rule="evenodd" d="M209.764 35.6483L212.449 29.7062C213.067 28.1724 211.893 28.0258 210.783 28.0258V27.4713H215.198V28.0258C214.174 28.0258 213.747 29.0469 213.344 29.9199L209.485 38.1192H208.781L205.137 29.6864C204.86 29.0687 204.434 28.0258 203.367 28.0258V27.4713H208.91V28.0258C207.972 28.0258 206.734 28.152 207.204 29.3028L209.764 35.6483Z" fill="#1D2658"/>
<path fill-rule="evenodd" clip-rule="evenodd" d="M217.649 23.3381C218.33 23.3381 218.906 23.914 218.906 24.5754C218.906 25.2342 218.33 25.8304 217.669 25.8304C216.987 25.8304 216.413 25.278 216.413 24.5754C216.413 23.8942 216.987 23.3381 217.649 23.3381V23.3381ZM218.842 27.2574V35.4563C218.842 37.3732 218.736 37.3091 220.547 37.565V38.1195H215.218V37.565C217.031 37.3091 216.924 37.3732 216.924 35.4563V29.558C216.924 28.5781 216.262 28.6631 215.218 28.6631V28.1106C216.391 28.0674 217.82 27.8115 218.798 27.2142L218.842 27.2574Z" fill="#1D2658"/>
<path fill-rule="evenodd" clip-rule="evenodd" d="M230.309 37.0325L227.474 38.3745C226.941 38.3745 224.468 38.6304 222.786 36.7354C222.103 35.9891 221.358 34.328 221.358 32.7525C221.358 29.3877 223.935 27.2144 227.092 27.2144C227.881 27.2144 229.01 27.3644 229.713 27.7699L230.46 29.1954C230.523 29.2803 230.523 29.3658 230.46 29.409L229.713 29.8766C229.606 29.9417 229.478 29.9615 229.394 29.8985L228.307 28.6429C228.008 28.301 227.432 27.9607 226.622 27.9607C225.364 27.9607 223.468 28.9619 223.468 32.0484C223.468 34.3072 224.492 37.1612 227.559 37.1612C228.732 37.1612 229.416 36.6509 229.947 36.3732L230.309 37.0325Z" fill="#1D2658"/>
<path fill-rule="evenodd" clip-rule="evenodd" d="M239.986 32.2418V31.6461C239.986 28.962 238.43 27.2145 236.021 27.2145C232.398 27.2145 231.056 30.2603 231.056 32.7526C231.056 34.35 231.845 36.0329 232.483 36.7553C234.211 38.6514 236.001 38.3741 236.533 38.3741H237.194L239.986 37.0545L239.645 36.3931C239.134 36.6505 238.43 37.1613 237.26 37.1613C234.211 37.1613 233.081 34.6685 233.081 32.2418H239.986ZM233.081 31.496C233.081 28.8134 234.466 27.9603 235.894 27.9603C237.089 27.9603 238.133 28.8984 238.133 30.2603C238.133 31.1984 237.535 31.496 237.066 31.496H233.081Z" fill="#1D2658"/>
<path fill-rule="evenodd" clip-rule="evenodd" d="M241.266 35.4154H241.82C241.798 36.9055 242.906 37.629 244.142 37.629C245.379 37.629 246.104 36.6919 246.104 35.7975C246.104 34.4132 244.995 33.9223 243.716 33.0081C241.991 31.751 241.286 31.4102 241.286 30.005C241.286 28.2153 242.949 27.2146 244.698 27.2146C245.379 27.2146 246.233 27.2573 247.211 27.5768V29.7064H246.659C246.593 28.984 245.955 27.9604 244.739 27.9604C243.846 27.9604 243.099 28.4925 243.099 29.3238C243.099 30.3454 244.186 30.8994 245.742 32.0064C247.744 33.412 248 34.2001 248 35.1794C248 37.3949 245.997 38.3743 244.142 38.3743C242.971 38.3743 242.054 38.1825 241.266 37.7989V35.4154Z" fill="#1D2658"/>
<path fill-rule="evenodd" clip-rule="evenodd" d="M62.8462 51.5118C62.8462 53.3926 63.3579 54.8308 65.3615 54.8308C67.2048 54.8308 68.1728 53.5946 68.1728 51.4431V47.7075C68.1728 47.4261 68.1193 47.1977 68.0913 46.982C68.0246 46.4977 67.5663 46.3095 66.9354 46.2433V45.8933H70.1097V46.2433C69.4635 46.3095 69.0205 46.4977 68.9523 46.982C68.9258 47.1977 68.8724 47.4261 68.8724 47.7075V51.4981C68.8724 54.3872 67.0301 55.4627 65.2948 55.4627C62.4287 55.4627 61.5417 54.0107 61.5417 51.5795V47.5742C61.5417 46.3232 61.5951 46.3914 60.3843 46.2433V45.8933H64.002V46.2433C62.7927 46.3914 62.8462 46.3232 62.8462 47.5742V51.5118Z" fill="#1D2658"/>
<path fill-rule="evenodd" clip-rule="evenodd" d="M77.7255 55.3013C76.0758 53.3528 74.3629 51.3087 72.6714 49.3185V53.9028C72.6714 54.1185 72.7126 54.295 72.7325 54.4609C72.7849 54.8348 73.1378 54.9813 73.8221 55.0312V55.3013H71.2787V55.0312C71.7782 54.9813 72.1199 54.8348 72.1724 54.4609C72.1937 54.295 72.235 54.1185 72.235 53.9028V49.0163C71.9437 48.6445 71.6219 48.3117 71.0308 48.3117V48.0421H72.9193C74.4657 49.9188 76.0758 51.8276 77.6211 53.7044H77.6415V49.4427C77.6415 49.2244 77.6002 49.0484 77.5794 48.8825C77.5279 48.5086 77.1741 48.3647 76.4897 48.3117V48.0421H79.0321V48.3117C78.5448 48.3647 78.1914 48.5086 78.1405 48.8825C78.1191 49.0484 78.0779 49.2244 78.0779 49.4427V55.3013H77.7255Z" fill="#1D2658"/>
<path fill-rule="evenodd" clip-rule="evenodd" d="M83.0492 54.0046C83.0492 54.9692 83.0079 54.9168 83.9423 55.0313V55.3014H81.1499V55.0313C82.0843 54.9168 82.043 54.9692 82.043 54.0046V49.339C82.043 48.3744 82.0843 48.4263 81.1499 48.3119V48.0422H83.9423V48.3119C83.0079 48.4263 83.0492 48.3744 83.0492 49.339V54.0046Z" fill="#1D2658"/>
<path fill-rule="evenodd" clip-rule="evenodd" d="M88.3635 48.3117C87.7922 48.3117 87.3772 48.4781 87.7188 49.4722C88.1247 50.6972 88.7265 52.4798 89.2662 54.0569C89.9297 52.4707 90.5636 50.8732 91.2073 49.2865C91.4659 48.6338 91.1966 48.3117 90.4903 48.3117V48.0421H92.7328V48.3117C92.4313 48.3117 92.0897 48.416 91.8707 48.9349C90.9985 51.0589 90.1181 53.1768 89.2443 55.3013H88.7158C88.0829 53.509 87.3772 51.5056 86.7443 49.7428C86.3598 48.6338 86.038 48.3117 85.54 48.3117V48.0421H88.3635V48.3117Z" fill="#1D2658"/>
<path fill-rule="evenodd" clip-rule="evenodd" d="M94.3311 55.0314C95.2649 54.9169 95.2237 54.9693 95.2237 54.0048V49.3391C95.2237 48.3746 95.2649 48.4265 94.3311 48.3115V48.0424H98.9707V49.7131H98.7004C98.5955 48.9443 98.3892 48.3746 97.6418 48.3746H96.2308V51.339H97.102C97.7563 51.339 98.0354 51.081 98.0573 50.437H98.3271V52.6459H98.0573C98.0354 52.0354 97.7976 51.6717 97.102 51.6717H96.2308V54.0165C96.2308 54.8966 96.6351 54.9693 97.57 54.9693C99.0736 54.9693 99.0018 54.545 99.4779 53.435H99.7477L99.4366 55.3015H94.3311V55.0314Z" fill="#1D2658"/>
<path fill-rule="evenodd" clip-rule="evenodd" d="M103.236 51.7553H104.098C105 51.7553 105.416 51.0715 105.416 49.8994C105.416 48.7685 104.792 48.3742 104.036 48.3742H103.236V51.7553ZM101.336 48.042H104.356C105.404 48.042 106.453 48.5924 106.453 49.8048C106.453 50.8731 105.799 51.6093 105 51.9211L106.017 53.4662C106.536 54.2232 107.118 54.9496 107.48 55.1674V55.3012H106.412C105.799 55.3012 105.467 54.1708 104.211 52.0849H103.236V54.0049C103.236 54.9695 103.193 54.9166 104.128 55.0315V55.3012H101.336V55.0315C102.272 54.9166 102.228 54.9695 102.228 54.0049V49.3393C102.228 48.3742 102.272 48.4266 101.336 48.3116V48.042Z" fill="#1D2658"/>
<path fill-rule="evenodd" clip-rule="evenodd" d="M112.62 49.5865C112.535 48.8621 112.14 48.2801 111.312 48.2801C110.709 48.2801 110.169 48.5924 110.169 49.3586C110.169 50.0851 110.894 50.5211 111.935 51.2994C113.035 52.1175 113.387 52.6461 113.387 53.5089C113.387 54.741 112.121 55.4258 110.876 55.4258C110.21 55.4258 109.64 55.3012 109.101 55.0951C109.058 55.0732 109.028 55.0315 109.028 54.9496V53.456H109.297C109.412 54.6067 110.169 55.0631 110.969 55.0631C111.707 55.0631 112.307 54.5024 112.307 53.7465C112.307 53.0724 111.944 52.5224 110.386 51.4953C109.826 51.1209 109.131 50.7169 109.131 49.5865C109.131 48.6545 110.169 47.9178 111.363 47.9178C111.808 47.9178 112.401 47.9702 112.816 48.1142C112.877 48.1366 112.888 48.1758 112.888 48.2282V49.5865H112.62Z" fill="#1D2658"/>
<path fill-rule="evenodd" clip-rule="evenodd" d="M117.155 54.0046C117.155 54.9692 117.113 54.9168 118.047 55.0313V55.3014H115.255V55.0313C116.189 54.9168 116.147 54.9692 116.147 54.0046V49.339C116.147 48.3744 116.189 48.4263 115.255 48.3119V48.0422H118.047V48.3119C117.113 48.4263 117.155 48.3744 117.155 49.339V54.0046Z" fill="#1D2658"/>
<path fill-rule="evenodd" clip-rule="evenodd" d="M123.174 54.0046C123.174 54.9692 123.132 54.9168 124.067 55.0313V55.3014H121.274V55.0313C122.209 54.9168 122.167 54.9692 122.167 54.0046V48.3744H121.234C120.33 48.3744 120.122 48.9442 119.78 49.629H119.52L119.801 48.0422H125.541L125.821 49.629H125.561C125.219 48.9442 125.011 48.3744 124.107 48.3744H123.174V54.0046Z" fill="#1D2658"/>
<path fill-rule="evenodd" clip-rule="evenodd" d="M128.84 55.0314C129.774 54.9169 129.734 54.9693 129.734 54.0048V52.4083L128.134 49.2445C127.791 48.5699 127.502 48.3115 127.025 48.3115V48.0424H129.67V48.3115C128.884 48.3115 128.956 48.7063 129.214 49.2445L130.471 51.8477L131.903 49.2445C132.255 48.6127 131.924 48.3115 131.31 48.3115V48.0424H133.449V48.3115C133.159 48.3115 132.877 48.4463 132.598 48.9443L130.866 52.0848C130.762 52.2939 130.739 52.5844 130.739 52.8443V54.0048C130.739 54.9693 130.699 54.9169 131.632 55.0314V55.3015H128.84V55.0314Z" fill="#1D2658"/>
<path fill-rule="evenodd" clip-rule="evenodd" d="M142.881 50.1949C142.881 48.7964 142.034 48.742 141.821 48.742C140.366 48.742 139.412 51.3497 139.412 53.0988C139.412 53.7968 139.533 55.0589 140.529 55.0589C142.063 55.0589 142.881 52.5326 142.881 50.1949M138.174 52.8164C138.174 51.0552 139.694 48.4199 141.941 48.4199C143.731 48.4199 144.119 49.6307 144.119 50.839C144.119 52.3179 142.936 55.4629 140.366 55.4629C138.644 55.4629 138.174 54.0786 138.174 52.8164" fill="#1D2658"/>
<path fill-rule="evenodd" clip-rule="evenodd" d="M150.886 48.8637L150.562 49.1465H148.8C148.142 52.344 147.065 56.6057 146.3 58.6493H145.693L147.618 49.1465H146.341L146.461 48.5824H147.727C148.439 45.7197 150.806 45.4231 151.37 45.4231C151.678 45.4231 152.325 45.4775 152.528 45.6647L152.365 46.5515L152.029 46.7133C151.84 46.3515 151.411 45.9334 150.846 45.9334C150.039 45.9334 149.434 46.4853 149.108 47.9358L148.963 48.5824H150.94L150.886 48.8637Z" fill="#1D2658"/>
<path fill-rule="evenodd" clip-rule="evenodd" d="M159.09 53.6223C159.09 54.8713 159.038 54.8056 160.247 54.9537V55.3012H156.628V54.9537C157.84 54.8056 157.786 54.8713 157.786 53.6223V47.5739C157.786 46.3235 157.84 46.3916 156.628 46.2436V45.8931H160.151C162.385 45.8931 163.488 46.7793 163.488 48.3945C163.488 50.3293 161.74 51.3773 159.683 51.2557V50.9871C161.364 51.0135 162.142 50.0067 162.142 48.5283C162.142 47.0214 161.417 46.3235 159.91 46.3235H159.09V53.6223Z" fill="#1D2658"/>
<path fill-rule="evenodd" clip-rule="evenodd" d="M165.342 55.0314C166.278 54.9169 166.235 54.9693 166.235 54.0048V49.3391C166.235 48.3746 166.278 48.4265 165.342 48.3115V48.0424H169.982V49.7131H169.711C169.607 48.9443 169.402 48.3746 168.654 48.3746H167.244V51.339H168.113C168.768 51.339 169.049 51.081 169.07 50.437H169.339V52.6459H169.07C169.049 52.0354 168.809 51.6717 168.113 51.6717H167.244V54.0165C167.244 54.8966 167.648 54.9693 168.58 54.9693C170.086 54.9693 170.015 54.545 170.491 53.435H170.761L170.448 55.3015H165.342V55.0314Z" fill="#1D2658"/>
<path fill-rule="evenodd" clip-rule="evenodd" d="M179.001 55.3013C177.351 53.3528 175.638 51.3087 173.947 49.3185V53.9028C173.947 54.1185 173.989 54.295 174.009 54.4609C174.061 54.8348 174.414 54.9813 175.098 55.0312V55.3013H172.558V55.0312C173.055 54.9813 173.396 54.8348 173.449 54.4609C173.471 54.295 173.511 54.1185 173.511 53.9028V49.0163C173.22 48.6445 172.899 48.3117 172.307 48.3117V48.0421H174.196C175.743 49.9188 177.351 51.8276 178.897 53.7044H178.919V49.4427C178.919 49.2244 178.877 49.0484 178.858 48.8825C178.805 48.5086 178.453 48.3647 177.766 48.3117V48.0421H180.308V48.3117C179.823 48.3647 179.467 48.5086 179.419 48.8825C179.396 49.0484 179.353 49.2244 179.353 49.4427V55.3013H179.001Z" fill="#1D2658"/>
<path fill-rule="evenodd" clip-rule="evenodd" d="M188.3 55.3013C186.651 53.3528 184.937 51.3087 183.247 49.3185V53.9028C183.247 54.1185 183.288 54.295 183.308 54.4609C183.361 54.8348 183.712 54.9813 184.398 55.0312V55.3013H181.857V55.0312C182.353 54.9813 182.696 54.8348 182.747 54.4609C182.77 54.295 182.809 54.1185 182.809 53.9028V49.0163C182.518 48.6445 182.198 48.3117 181.605 48.3117V48.0421H183.496C185.042 49.9188 186.651 51.8276 188.196 53.7044H188.218V49.4427C188.218 49.2244 188.176 49.0484 188.157 48.8825C188.104 48.5086 187.752 48.3647 187.065 48.3117V48.0421H189.608V48.3117C189.122 48.3647 188.766 48.5086 188.717 48.8825C188.694 49.0484 188.653 49.2244 188.653 49.4427V55.3013H188.3Z" fill="#1D2658"/>
<path fill-rule="evenodd" clip-rule="evenodd" d="M195.057 49.5865C194.974 48.8621 194.58 48.2801 193.748 48.2801C193.148 48.2801 192.607 48.5924 192.607 49.3586C192.607 50.0851 193.335 50.5211 194.372 51.2994C195.473 52.1175 195.826 52.6461 195.826 53.5089C195.826 54.741 194.56 55.4258 193.315 55.4258C192.65 55.4258 192.078 55.3012 191.538 55.0951C191.498 55.0732 191.466 55.0315 191.466 54.9496V53.456H191.737C191.85 54.6067 192.607 55.0631 193.407 55.0631C194.143 55.0631 194.746 54.5024 194.746 53.7465C194.746 53.0724 194.384 52.5224 192.825 51.4953C192.265 51.1209 191.571 50.7169 191.571 49.5865C191.571 48.6545 192.607 47.9178 193.8 47.9178C194.248 47.9178 194.841 47.9702 195.254 48.1142C195.317 48.1366 195.326 48.1758 195.326 48.2282V49.5865H195.057Z" fill="#1D2658"/>
<path fill-rule="evenodd" clip-rule="evenodd" d="M199.24 55.0314C200.175 54.9169 200.132 54.9693 200.132 54.0048V52.4083L198.534 49.2445C198.193 48.5699 197.902 48.3115 197.424 48.3115V48.0424H200.071V48.3115C199.282 48.3115 199.354 48.7063 199.614 49.2445L200.87 51.8477L202.302 49.2445C202.654 48.6127 202.323 48.3115 201.71 48.3115V48.0424H203.849V48.3115C203.556 48.3115 203.276 48.4463 202.999 48.9443L201.265 52.0848C201.161 52.2939 201.141 52.5844 201.141 52.8443V54.0048C201.141 54.9693 201.098 54.9169 202.03 55.0314V55.3015H199.24V55.0314Z" fill="#1D2658"/>
<path fill-rule="evenodd" clip-rule="evenodd" d="M205.549 55.0314C206.484 54.9169 206.443 54.9693 206.443 54.0048V49.3391C206.443 48.3746 206.484 48.4265 205.549 48.3115V48.0424H208.342V48.3115C207.407 48.4265 207.449 48.3746 207.449 49.3391V54.1706C207.449 54.8966 207.853 54.9693 208.777 54.9693C210.283 54.9693 210.221 54.545 210.697 53.435H210.957L210.644 55.3015H205.549V55.0314Z" fill="#1D2658"/>
<path fill-rule="evenodd" clip-rule="evenodd" d="M214.58 48.3117C214.009 48.3117 213.593 48.4781 213.935 49.4722C214.341 50.6972 214.942 52.4798 215.483 54.0569C216.147 52.4707 216.78 50.8732 217.424 49.2865C217.685 48.6338 217.413 48.3117 216.707 48.3117V48.0421H218.95V48.3117C218.65 48.3117 218.305 48.416 218.089 48.9349C217.216 51.0589 216.335 53.1768 215.461 55.3013H214.934C214.3 53.509 213.593 51.5056 212.96 49.7428C212.575 48.6338 212.255 48.3117 211.756 48.3117V48.0421H214.58V48.3117Z" fill="#1D2658"/>
<path fill-rule="evenodd" clip-rule="evenodd" d="M223.184 52.5023L222.082 49.1304H222.063L220.828 52.5023H223.184ZM220.672 52.8961L220.195 54.285C220.06 54.6889 220.256 55.0313 220.713 55.0313V55.3014H218.826V55.0313C219.106 55.0313 219.407 54.8548 219.572 54.5129C220.02 53.6012 221.233 50.209 222.094 47.9176H222.676C223.381 50.0024 224.441 53.1963 224.793 54.1186C225.022 54.7011 225.186 55.0313 225.634 55.0313V55.3014H223.215V55.0313C223.869 55.0313 223.932 54.6889 223.765 54.2326L223.32 52.8961H220.672Z" fill="#1D2658"/>
<path fill-rule="evenodd" clip-rule="evenodd" d="M233.625 55.3013C231.975 53.3528 230.261 51.3087 228.571 49.3185V53.9028C228.571 54.1185 228.61 54.295 228.633 54.4609C228.685 54.8348 229.038 54.9813 229.723 55.0312V55.3013H227.18V55.0312C227.678 54.9813 228.02 54.8348 228.073 54.4609C228.093 54.295 228.134 54.1185 228.134 53.9028V49.0163C227.845 48.6445 227.522 48.3117 226.932 48.3117V48.0421H228.819C230.364 49.9188 231.975 51.8276 233.521 53.7044H233.541V49.4427C233.541 49.2244 233.5 49.0484 233.479 48.8825C233.428 48.5086 233.074 48.3647 232.391 48.3117V48.0421H234.933V48.3117C234.444 48.3647 234.092 48.5086 234.04 48.8825C234.02 49.0484 233.977 49.2244 233.977 49.4427V55.3013H233.625Z" fill="#1D2658"/>
<path fill-rule="evenodd" clip-rule="evenodd" d="M238.534 54.0046C238.534 54.9692 238.493 54.9168 239.427 55.0313V55.3014H236.635V55.0313C237.569 54.9168 237.528 54.9692 237.528 54.0046V49.339C237.528 48.3744 237.569 48.4263 236.635 48.3119V48.0422H239.427V48.3119C238.493 48.4263 238.534 48.3744 238.534 49.339V54.0046Z" fill="#1D2658"/>
<path fill-rule="evenodd" clip-rule="evenodd" d="M245.383 52.5023L244.284 49.1304H244.261L243.029 52.5023H245.383ZM242.872 52.8961L242.395 54.285C242.259 54.6889 242.456 55.0313 242.914 55.0313V55.3014H241.024V55.0313C241.304 55.0313 241.605 54.8548 241.77 54.5129C242.217 53.6012 243.433 50.209 244.294 47.9176H244.874C245.582 50.0024 246.639 53.1963 246.993 54.1186C247.221 54.7011 247.386 55.0313 247.833 55.0313V55.3014H245.415V55.0313C246.067 55.0313 246.13 54.6889 245.963 54.2326L245.519 52.8961H242.872Z" fill="#1D2658"/>
<mask id="mask0_5_716" style="mask-type:luminance" maskUnits="userSpaceOnUse" x="0" y="0" width="248" height="60">
<path fill-rule="evenodd" clip-rule="evenodd" d="M0 60H248V0H0V60Z" fill="white"/>
</mask>
<g mask="url(#mask0_5_716)">
<path fill-rule="evenodd" clip-rule="evenodd" d="M58.8438 43.5434H248V42.7803H58.8438V43.5434Z" fill="#1D2658"/>
<path fill-rule="evenodd" clip-rule="evenodd" d="M52.7409 0.000244141H-0.000347124C-0.000347124 0.000244141 0.000162059 26.1295 -0.000347124 26.2679C-0.0349716 37.7028 6.30691 45.9845 11.6335 50.9188C17.4916 56.3455 23.9501 59.4737 26.108 59.9438L26.3703 60.0002L26.6345 59.9433C28.7904 59.4737 35.2484 56.3455 41.1066 50.9188C46.4336 45.9845 52.7755 37.7028 52.7404 26.2684C52.7399 25.9413 52.7409 0.000244141 52.7409 0.000244141" fill="#FEFEFE"/>
<path fill-rule="evenodd" clip-rule="evenodd" d="M1.33362 1.3877C1.33362 1.3877 1.40338 16.6529 1.33057 16.5796L51.4134 16.5801V1.3877H1.33362ZM14.773 10.9983H14.7735C14.8504 11.0583 14.9304 11.1204 14.9869 11.2038C15.0464 11.2928 15.077 11.3966 15.0745 11.509C15.077 11.6169 15.0464 11.7207 14.9864 11.8097C14.9304 11.8931 14.8504 11.9552 14.7735 12.0157C14.6534 12.1088 14.5408 12.1974 14.5408 12.3505V13.286L9.01059 13.2855L3.48085 13.286V12.3505C3.48085 12.1974 3.36781 12.1088 3.24815 12.0157C3.17127 11.9552 3.09132 11.8931 3.03531 11.8097C2.97523 11.7207 2.94468 11.6169 2.94723 11.5045C2.94468 11.3966 2.97523 11.2928 3.03531 11.2038C3.09132 11.1204 3.17127 11.0583 3.24815 10.9983C3.36832 10.9046 3.48085 10.8166 3.48085 10.6635V7.60854C3.48085 7.45541 3.36781 7.3674 3.24815 7.27379C3.17127 7.21376 3.09132 7.15169 3.03531 7.06826C2.97523 6.97923 2.94468 6.87545 2.94723 6.76302C2.94468 6.65516 2.97523 6.55138 3.03531 6.46235C3.09132 6.37892 3.17483 6.3138 3.24815 6.25631C3.36832 6.16321 3.48085 6.07469 3.48085 5.92156V4.95751H3.62138C4.26805 4.95751 4.83528 4.94326 5.2304 4.77436C5.39182 4.70568 5.5405 4.61207 5.69834 4.51236C6.03746 4.29971 6.42139 4.05857 6.99625 4.05857C7.45656 4.05857 7.88478 4.23103 8.26412 4.38365C8.53195 4.49099 8.78502 4.59274 8.97341 4.59274H9.04827C9.23666 4.59274 9.48973 4.49099 9.75909 4.38314C10.1369 4.23103 10.5646 4.05857 11.0254 4.05857C11.6003 4.05857 11.9842 4.29971 12.3238 4.51338C12.4812 4.61207 12.6299 4.70568 12.7913 4.77436C13.1864 4.94326 13.7536 4.95751 14.3998 4.95751H14.5408V5.92156C14.5408 6.07469 14.6534 6.16321 14.7735 6.25631C14.8469 6.3138 14.9298 6.37892 14.9864 6.46235C15.0464 6.55138 15.077 6.65516 15.0745 6.76759C15.077 6.87545 15.0464 6.97923 14.9864 7.06826C14.9304 7.15169 14.8504 7.21376 14.7735 7.27379C14.6534 7.3674 14.5408 7.45541 14.5408 7.60854V10.6635C14.5408 10.8166 14.6534 10.9046 14.773 10.9983V10.9983ZM35.9357 12.5947C35.0803 13.9611 33.4305 14.2954 33.3618 14.3086C33.0364 14.3661 32.7024 14.3951 32.3689 14.3951H32.3684C30.6448 14.3951 29.0516 13.6457 27.4359 12.8109C27.2536 12.7168 27.052 12.6064 26.8341 12.4873C25.803 11.9237 24.363 11.1361 23.1445 11.1361C22.7901 11.1361 22.4546 11.2028 22.1531 11.361L22.1027 11.3874L22.1002 11.4434C22.0915 11.6026 22.0615 11.7532 22.0095 11.8921C21.8155 12.4115 21.1801 12.964 20.871 13.1838C20.1617 13.693 19.2905 14.214 18.2039 14.214C18.0415 14.214 17.8908 14.1911 17.7563 14.1453C17.5613 14.0787 17.3938 13.9606 17.2716 13.8039C17.212 13.7271 17.1621 13.6406 17.1229 13.5455C17.0913 13.4702 17.072 13.3959 17.0598 13.3044L17.0516 13.2408L16.99 13.2219C16.5694 13.0963 16.3179 12.8211 16.3179 12.4858C16.3179 12.234 16.5042 12.0137 16.6845 11.8005C16.9656 11.4683 17.2079 11.1814 16.8123 10.8065C16.7751 10.7714 16.7318 10.7398 16.6901 10.7088C16.6326 10.6661 16.5781 10.6259 16.5292 10.573C16.1819 10.2011 16.3871 9.42829 16.5093 8.96636L16.5226 8.9165C16.656 8.41082 16.8602 7.88783 17.1468 7.31754C17.5353 6.54578 18.0048 5.67635 18.6632 5.1259C18.6764 5.11522 18.6932 5.11013 18.71 5.11267C18.7268 5.11521 18.7421 5.12488 18.7513 5.13913C18.765 5.15948 18.8363 5.26987 18.9397 5.44132L19.0507 5.6265L19.1189 5.42198C19.3017 4.87611 19.6036 4.52254 20.0161 4.37144C20.4581 4.20915 20.87 4.43656 21.0757 4.58613L21.1628 4.64972L21.2188 4.55815C21.3507 4.34346 21.5935 4.084 22.0014 4.06569C22.4485 4.04534 22.814 4.35058 22.9907 4.53475L23.0549 4.60139L23.1262 4.54238C23.3258 4.375 23.8482 3.99447 24.3722 4.06518C24.8681 4.13183 25.0575 4.56374 25.1156 4.74638L25.1507 4.85678L25.2541 4.80539C25.4878 4.68991 25.9425 4.53678 26.3702 4.80743C26.6446 4.98142 26.6772 5.27852 26.6564 5.49677L26.6441 5.62548L26.7719 5.60411C27.0932 5.54968 27.6844 5.51305 28.0357 5.8712C28.3117 6.15304 28.33 6.5178 28.2964 6.77421L28.2801 6.90038L28.4064 6.88562C28.6885 6.85255 29.0673 6.87952 29.2715 7.19544C29.4095 7.41013 29.3555 7.71283 29.3112 7.8741L29.2842 7.97279L29.3835 7.9967C29.5475 8.03689 29.8357 8.13915 29.9212 8.37419C29.9849 8.54919 29.9645 8.84121 29.8652 9.17545L29.8398 9.26143L29.9228 9.29551C30.0648 9.35351 30.325 9.4929 30.4656 9.77067C30.6035 10.0423 30.5969 10.3801 30.4472 10.7744L30.4228 10.8385L30.4742 10.8838C30.8413 11.2099 31.2115 11.5085 31.5746 11.772C32.3108 12.3072 33.459 12.5911 34.2396 11.9506C34.5344 11.7085 34.6653 11.2664 34.5655 10.8507C34.4774 10.4824 34.2335 10.229 33.898 10.1548C33.3093 10.0255 32.8419 10.5847 32.4621 11.1494C32.4498 11.1677 32.4285 11.1773 32.4066 11.1753C32.3847 11.1733 32.3658 11.159 32.3572 11.1387C32.0084 10.3048 31.9911 9.61246 32.3068 9.08133C32.5741 8.63059 33.0899 8.31467 33.7213 8.21444L33.8058 8.20122L33.8048 8.11575C33.7936 7.12778 34.0303 6.40741 34.5085 5.97498C34.7992 5.71247 35.3334 5.42453 36.2285 5.5451C36.2468 5.54764 36.2631 5.55833 36.2723 5.57461C36.2815 5.59038 36.283 5.61022 36.2758 5.627C35.618 7.2102 35.7809 7.80288 36.1379 9.1027C36.1694 9.21717 36.202 9.33672 36.2356 9.46289V9.46238C36.5661 10.6945 36.4653 11.7481 35.9357 12.5947V12.5947ZM49.4958 10.9983V10.9983C49.5727 11.0583 49.6521 11.1204 49.7086 11.2038C49.7687 11.2928 49.7993 11.3966 49.7967 11.509C49.7993 11.6169 49.7687 11.7207 49.7086 11.8097C49.6521 11.8931 49.5727 11.9552 49.4958 12.0157C49.3756 12.1088 49.2626 12.1974 49.2626 12.3505V13.286L43.7334 13.2855L38.2031 13.286V12.3505C38.2031 12.1974 38.0901 12.1088 37.9709 12.0157C37.8935 11.9552 37.8136 11.8931 37.7571 11.8097C37.697 11.7207 37.6669 11.6169 37.669 11.5045C37.6669 11.3966 37.697 11.2928 37.7571 11.2038C37.8136 11.1204 37.8935 11.0583 37.9709 10.9983C38.0901 10.9046 38.2031 10.8166 38.2031 10.6635V7.60854C38.2031 7.45541 38.0901 7.3674 37.9709 7.27379C37.8935 7.21376 37.8136 7.15169 37.7571 7.06826C37.697 6.97923 37.6669 6.87545 37.669 6.76302C37.6669 6.65516 37.697 6.55138 37.7571 6.46235C37.8136 6.37892 37.8971 6.3138 37.9709 6.25631C38.0901 6.16321 38.2031 6.07469 38.2031 5.92156V4.95751H38.3442C38.9903 4.95751 39.5575 4.94326 39.9527 4.77436C40.1141 4.70568 40.2628 4.61207 40.4211 4.51236C40.7597 4.29971 41.1436 4.05857 41.718 4.05857C42.1788 4.05857 42.607 4.23103 42.9864 4.38365C43.2542 4.49099 43.5068 4.59274 43.6957 4.59274H43.7705C43.9589 4.59274 44.2115 4.49099 44.4813 4.38314C44.8587 4.23103 45.2874 4.05857 45.7477 4.05857C46.3226 4.05857 46.7065 4.29971 47.0461 4.51338C47.2034 4.61207 47.3521 4.70568 47.5135 4.77436C47.9082 4.94326 48.4759 4.95751 49.1226 4.95751H49.2626V5.92156C49.2626 6.07469 49.3756 6.16321 49.4958 6.25631C49.5691 6.3138 49.6521 6.37892 49.7086 6.46235C49.7687 6.55138 49.7993 6.65516 49.7967 6.76759C49.7993 6.87545 49.7687 6.97923 49.7086 7.06826C49.6521 7.15169 49.5727 7.21376 49.4958 7.27379C49.3756 7.3674 49.2626 7.45541 49.2626 7.60854V10.6635C49.2626 10.8166 49.3756 10.9046 49.4958 10.9983V10.9983Z" fill="#A80532"/>
<path fill-rule="evenodd" clip-rule="evenodd" d="M18.5863 10.3405C18.7614 10.3405 18.9284 10.3857 19.0934 10.5221C19.1479 10.5668 19.1983 10.6121 19.2426 10.6543C19.3572 10.7637 19.3505 10.9484 19.2273 11.0486C19.1031 11.1499 18.9615 11.2501 18.8734 11.3106C18.6692 11.45 18.3194 11.7059 18.0771 11.505C17.9544 11.4032 18.1972 11.2379 18.0908 10.8171C18.0078 10.4875 18.3332 10.3405 18.5863 10.3405" fill="#1D2658"/>
<path fill-rule="evenodd" clip-rule="evenodd" d="M32.369 14.4945C30.6429 14.4945 29.0252 13.7441 27.3902 12.8991C27.2059 12.8039 27.0022 12.6925 26.7869 12.5745C25.4691 11.8541 23.4904 10.772 22.1991 11.4487C22.1905 11.6181 22.1579 11.7783 22.1029 11.9269C21.9002 12.4687 21.2464 13.039 20.9292 13.2643C20.2072 13.7827 19.3192 14.3134 18.2041 14.3134C18.0304 14.3134 17.869 14.2884 17.7244 14.2391C17.5111 14.1668 17.3272 14.0371 17.1933 13.8646C17.1287 13.7812 17.0737 13.6866 17.0309 13.5838C16.9932 13.4933 16.9734 13.4078 16.9616 13.3172C16.5003 13.1794 16.2188 12.868 16.2188 12.486C16.2188 12.198 16.4168 11.9635 16.6088 11.7366C16.9214 11.3667 17.0579 11.176 16.7442 10.8789C16.7116 10.8478 16.6724 10.8193 16.6317 10.7888C16.5726 10.7451 16.512 10.7003 16.4565 10.6408C16.0721 10.2287 16.286 9.42286 16.4138 8.94109L16.4265 8.89123C16.5619 8.37893 16.7682 7.84933 17.0584 7.27344C17.451 6.49253 17.9266 5.61242 18.5997 5.05026C18.6343 5.02075 18.6801 5.00804 18.725 5.01465C18.7698 5.02126 18.8095 5.04721 18.8344 5.08486C18.8579 5.12047 19.1267 5.53356 19.4083 6.07588C20.5784 5.37687 22.2455 5.29598 22.4374 5.28937C23.4675 5.25121 24.9625 5.41299 26.2354 6.39485C27.0272 7.00483 27.6795 7.76031 28.3108 8.49085C28.4753 8.68163 28.6459 8.87902 28.816 9.07031C29.7865 10.1626 30.7076 11.0198 31.6328 11.6918C32.3395 12.2051 33.4368 12.4814 34.1766 11.874C34.4424 11.6552 34.5601 11.2533 34.4689 10.8738C34.39 10.5441 34.1741 10.3177 33.8767 10.2521C33.3462 10.1346 32.9057 10.6677 32.5447 11.2045C32.5121 11.2528 32.4556 11.2798 32.397 11.2742C32.339 11.2686 32.2886 11.2314 32.2662 11.177C31.9042 10.3126 31.8889 9.59074 32.2214 9.03113C32.5035 8.55597 33.0514 8.22071 33.7057 8.11693C33.6939 7.09895 33.9414 6.35416 34.4419 5.90189C34.748 5.62463 35.3086 5.32091 36.2419 5.44657C36.2908 5.45318 36.3341 5.48218 36.3585 5.52491C36.3835 5.56765 36.3865 5.61954 36.3677 5.66532C35.723 7.21697 35.8829 7.79948 36.2337 9.07488C36.2648 9.19037 36.2979 9.31043 36.332 9.4371C36.6696 10.6967 36.5647 11.7768 36.0199 12.6472C35.1416 14.0508 33.4511 14.3922 33.3793 14.4065C33.0381 14.4665 32.7015 14.4945 32.369 14.4945M23.1579 10.9109C24.4069 10.9109 25.8265 11.6873 26.9396 12.2957C27.1535 12.4127 27.3556 12.5231 27.5364 12.6167C29.4361 13.5981 31.3079 14.4497 33.3212 14.0936C33.335 14.091 34.9486 13.7624 35.7516 12.4763C36.246 11.6842 36.3381 10.6891 36.025 9.51952C35.9909 9.39335 35.9583 9.2738 35.9262 9.15933C35.5927 7.94498 35.4033 7.2536 35.9939 5.74113C35.3055 5.69687 34.889 5.9258 34.6558 6.13743C34.2047 6.54544 33.9928 7.25615 34.0269 8.25022C34.0295 8.33365 33.9679 8.40539 33.8844 8.41403C33.2662 8.47813 32.7469 8.76913 32.4948 9.19342C32.2509 9.60397 32.2377 10.1356 32.4546 10.7776C32.7611 10.3589 33.2805 9.79475 33.9455 9.94126C34.36 10.0328 34.6716 10.3539 34.7785 10.8C34.8971 11.295 34.7367 11.8256 34.3788 12.1197C33.5086 12.8339 32.2484 12.5323 31.4459 11.9493C30.5019 11.2635 29.5639 10.391 28.5782 9.28143C28.4066 9.08862 28.2355 8.89021 28.07 8.69842C27.4493 7.98008 26.8067 7.23682 26.0409 6.64617C24.8428 5.72281 23.4268 5.57172 22.4491 5.60682C21.7831 5.63124 20.4465 5.81845 19.5508 6.36128C19.8253 6.93157 20.0733 7.58734 20.0733 8.09302C20.0733 8.18256 20.0549 8.27311 20.0229 8.36316C20.6731 7.98008 21.4506 8.25429 21.889 8.73047C21.9863 8.83679 22.0861 8.98891 22.2022 9.16442C22.3717 9.42235 22.5647 9.71437 22.7959 9.93669C22.83 9.96975 22.8478 10.0166 22.8443 10.0634C22.8407 10.1107 22.8157 10.1539 22.777 10.1814C22.773 10.1844 22.361 10.4744 21.779 10.9058C21.7006 10.9638 21.6171 11.0208 21.5433 11.0712C21.5295 11.0803 21.5148 11.0905 21.5 11.1007L22.0128 11.1877C22.3656 10.9923 22.7531 10.9109 23.1579 10.9109M18.6669 5.41553C18.1104 5.94259 17.6933 6.71943 17.343 7.4164C17.063 7.97245 16.8639 8.48119 16.7346 8.97212L16.7213 9.02248C16.6251 9.38521 16.4245 10.1402 16.6892 10.4241C16.7249 10.4622 16.7717 10.4968 16.8211 10.5334C16.868 10.568 16.9163 10.6036 16.9627 10.6479C17.5085 11.1648 17.1292 11.614 16.8522 11.9416C16.6897 12.1334 16.537 12.314 16.537 12.486C16.537 12.8701 17.0019 13.0044 17.1439 13.0364C17.2122 13.0517 17.2626 13.1102 17.2677 13.1799C17.2758 13.2913 17.288 13.3727 17.3247 13.4617C17.3568 13.5385 17.397 13.6088 17.4444 13.6698C17.5401 13.7929 17.6725 13.886 17.8273 13.9379C17.9388 13.9761 18.0656 13.9954 18.2041 13.9954C19.2285 13.9954 20.0626 13.4953 20.7439 13.0054C21.1512 12.7164 21.6604 12.2016 21.8045 11.8155C21.8432 11.7122 21.8671 11.6038 21.8778 11.4873L21.1614 11.3657C21.1548 11.3647 21.1482 11.3632 21.142 11.3612C21.0672 11.3388 21.0158 11.2823 21.0051 11.2111C20.9827 11.0676 21.1105 10.9811 21.3641 10.8082C21.4389 10.7573 21.5163 10.7049 21.5896 10.6504C21.9659 10.3717 22.2714 10.1514 22.443 10.0288C22.2444 9.80696 22.0764 9.55157 21.9364 9.33943C21.8279 9.1746 21.7337 9.03266 21.6543 8.94516C21.2989 8.55902 20.6726 8.33365 20.1634 8.64958C19.9582 8.77727 19.7785 8.936 19.5885 9.10388C19.4348 9.23971 19.2759 9.38013 19.1018 9.50324C19.0335 9.55106 18.9403 9.53885 18.8874 9.47475C18.8339 9.41065 18.8395 9.31653 18.8996 9.25905C18.922 9.23666 18.9495 9.21123 18.9801 9.18274C19.2117 8.965 19.755 8.45473 19.755 8.09302C19.755 7.25513 18.9515 5.87747 18.6669 5.41553" fill="#1D2658"/>
<path fill-rule="evenodd" clip-rule="evenodd" d="M17.5916 13.3962C17.4409 13.3962 17.2882 13.387 17.1329 13.3687C17.0458 13.3585 16.9832 13.2792 16.9939 13.1922C17.004 13.1047 17.083 13.0426 17.1706 13.0533C17.8951 13.1388 18.9527 13.0416 19.8753 12.0933C19.9364 12.0307 20.0373 12.0292 20.0999 12.0903C20.163 12.1513 20.1646 12.252 20.1034 12.3151C19.4105 13.0274 18.5494 13.3962 17.5916 13.3962" fill="#1D2658"/>
<path fill-rule="evenodd" clip-rule="evenodd" d="M30.3586 11.0105C30.3387 11.0105 30.3189 11.0064 30.2995 10.9983C30.2242 10.9652 30.1895 10.8777 30.2221 10.8029C30.3886 10.4203 30.4115 10.1039 30.2903 9.86275C30.1269 9.53614 29.7435 9.44304 29.7394 9.44202C29.6982 9.43236 29.6625 9.40489 29.6427 9.36775C29.6223 9.3301 29.6187 9.28584 29.6335 9.24565C29.689 9.09659 29.8148 8.6606 29.7353 8.44185C29.6671 8.25463 29.3142 8.17628 29.1961 8.16408C29.1493 8.15899 29.1075 8.13202 29.0836 8.09183C29.0596 8.05114 29.0561 8.00179 29.0744 7.95855C29.1238 7.84001 29.2262 7.49051 29.105 7.30278C28.8697 6.93853 28.2521 7.11506 28.246 7.11709C28.193 7.13236 28.1355 7.1176 28.0968 7.07741C28.0586 7.03773 28.0454 6.97973 28.0627 6.92733C28.0647 6.92225 28.2414 6.36467 27.8941 6.00957C27.4878 5.59546 26.6176 5.83914 26.6089 5.84169C26.556 5.85695 26.499 5.84169 26.4608 5.80201C26.4226 5.76232 26.4093 5.70535 26.4267 5.65295C26.4323 5.63361 26.5759 5.17219 26.2642 4.9748C25.7693 4.66193 25.2026 5.06281 25.197 5.06688C25.1542 5.0974 25.0982 5.10351 25.0503 5.08214C25.002 5.06078 24.9689 5.01601 24.9622 4.96361C24.9592 4.93817 24.8787 4.33328 24.3461 4.26155C23.7702 4.18473 23.1602 4.77639 23.1541 4.7825C23.1236 4.81251 23.0818 4.82777 23.0391 4.82472C22.9968 4.82167 22.9571 4.80081 22.9316 4.76673C22.9275 4.76164 22.5212 4.23764 22.0105 4.26358C21.5166 4.28546 21.3231 4.78504 21.3216 4.79013C21.3038 4.83693 21.2635 4.87203 21.2141 4.88272C21.1653 4.8934 21.1138 4.87916 21.0782 4.84354C21.0736 4.83947 20.5858 4.37347 20.0843 4.55713C19.4544 4.78809 19.2757 5.55832 19.2171 5.81116L19.2151 5.82032C19.1963 5.90019 19.1168 5.95005 19.0364 5.93123C18.9564 5.91291 18.9065 5.83304 18.9254 5.75317L18.9274 5.74452C18.9951 5.4525 19.2008 4.56476 19.9819 4.27834C20.4662 4.10079 20.9102 4.34346 21.1342 4.50625C21.261 4.30021 21.5293 3.98785 21.9968 3.96648C22.4891 3.94359 22.8833 4.27935 23.0625 4.46606C23.2931 4.27325 23.8303 3.89221 24.3853 3.96699C24.8706 4.03211 25.114 4.41366 25.2102 4.71636C25.4699 4.58867 25.9577 4.42943 26.4236 4.72399C26.7459 4.928 26.7775 5.27445 26.7556 5.50643C27.0932 5.44945 27.7236 5.41079 28.1065 5.80201C28.4186 6.11997 28.4283 6.53255 28.3952 6.78692C28.6691 6.75487 29.1152 6.77013 29.355 7.14202C29.5103 7.38316 29.4614 7.70418 29.4074 7.90055C29.6091 7.9499 29.9151 8.06792 30.0149 8.34061C30.1116 8.60566 30.023 8.99281 29.9604 9.20393C30.1315 9.27363 30.4024 9.42625 30.5546 9.7259C30.7186 10.0505 30.6987 10.4524 30.495 10.9209C30.4706 10.9769 30.4161 11.0105 30.3586 11.0105" fill="#1D2658"/>
<path fill-rule="evenodd" clip-rule="evenodd" d="M29.6161 13.0614C29.61 13.0614 29.6039 13.0609 29.5978 13.0604C29.5163 13.0507 29.4583 12.9765 29.4685 12.8951C29.5377 12.3263 29.2032 12.223 28.9079 12.1315C28.8295 12.107 28.7622 12.0862 28.7088 12.0557C28.5509 11.9646 28.5453 11.7748 28.5387 11.5744C28.5316 11.3628 28.5239 11.1226 28.3636 10.943C28.0871 10.6347 27.5392 10.8342 27.5336 10.8362C27.4842 10.8545 27.4287 10.8454 27.3875 10.8123C27.3467 10.7787 27.3263 10.7263 27.3345 10.6739C27.3355 10.6683 27.4226 10.068 27.0763 9.77447C26.782 9.52468 26.2265 9.58522 26.0376 9.62948C25.9913 9.64017 25.9429 9.62847 25.9067 9.59794C25.8711 9.56691 25.8518 9.52112 25.8553 9.47432C25.8823 9.10192 25.7341 8.78244 25.448 8.59675C25.2056 8.44006 24.9128 8.4192 24.6842 8.54231C24.0594 8.87808 23.815 8.90097 23.1602 8.43802C22.956 8.29354 22.7518 8.24572 22.5538 8.29608C22.3033 8.35967 22.0731 8.5825 21.9051 8.92336C21.8689 8.99712 21.7798 9.02765 21.706 8.99153C21.6327 8.95541 21.6021 8.86638 21.6383 8.79261C21.845 8.37188 22.1444 8.0936 22.4804 8.00814C22.7625 7.9359 23.0574 8.00101 23.3323 8.19535C23.8832 8.58555 24.0095 8.56775 24.5437 8.28031C24.8675 8.10632 25.2764 8.13176 25.6094 8.34746C25.9342 8.55808 26.1303 8.90911 26.1532 9.30949C26.4241 9.27642 26.9322 9.26217 27.2688 9.54809C27.5891 9.81924 27.6431 10.244 27.6426 10.5015C27.8931 10.4536 28.3086 10.4363 28.5851 10.7451C28.8177 11.0051 28.8284 11.3287 28.8356 11.5647C28.8386 11.6461 28.8422 11.7677 28.8615 11.8003C28.888 11.8145 28.943 11.8313 28.996 11.8476C29.2775 11.9346 29.8631 12.1162 29.7633 12.9307C29.7546 13.0065 29.6905 13.0614 29.6161 13.0614" fill="#1D2658"/>
<path fill-rule="evenodd" clip-rule="evenodd" d="M14.8357 10.9179C14.7119 10.8218 14.6422 10.7623 14.6422 10.6636V7.60861C14.6422 7.50991 14.7119 7.45039 14.8357 7.35373C14.9151 7.29166 15.0057 7.22146 15.0709 7.1248C15.1427 7.01847 15.1788 6.89434 15.1758 6.76512C15.1788 6.63641 15.1427 6.51177 15.0709 6.40544C15.0057 6.30878 14.9151 6.23858 14.8357 6.17651C14.7119 6.07985 14.6422 6.02033 14.6422 5.92163V4.85634H14.4003C13.8331 4.85583 13.2256 4.84972 12.831 4.68133C12.6772 4.6152 12.5316 4.52413 12.3778 4.42696C12.027 4.20719 11.6298 3.9574 11.0254 3.9574C10.5453 3.9574 10.1074 4.13342 9.7209 4.28909C9.46224 4.39288 9.21732 4.49157 9.04827 4.49157H9.01263H9.00906H8.97342C8.80437 4.49157 8.55945 4.39288 8.30079 4.28909C7.91432 4.13342 7.47642 3.9574 6.99575 3.9574C6.39186 3.9574 5.99469 4.20719 5.64387 4.42696C5.49009 4.52413 5.34447 4.6152 5.19018 4.68133C4.79607 4.84972 4.18811 4.85583 3.6219 4.85634H3.37953V5.92163C3.37953 6.02033 3.30926 6.07985 3.18604 6.17651C3.1066 6.23858 3.01597 6.30878 2.95079 6.40544C2.879 6.51177 2.84234 6.63641 2.84539 6.76512C2.84234 6.89434 2.879 7.01847 2.95079 7.1248C3.01597 7.22146 3.1066 7.29166 3.18604 7.35373C3.30926 7.45039 3.37953 7.50991 3.37953 7.60861V10.6636C3.37953 10.7623 3.30926 10.8218 3.18604 10.9179C3.1066 10.98 3.01597 11.0507 2.95079 11.1469C2.879 11.2537 2.84234 11.3778 2.84539 11.5066C2.84234 11.6358 2.879 11.7599 2.95079 11.8662C3.01597 11.9629 3.1066 12.0336 3.18604 12.0957C3.30926 12.1918 3.37953 12.2513 3.37953 12.35V13.3731L3.37138 13.3868H3.37953V13.3874H9.01059H14.6422V13.3868H14.6503L14.6422 13.3731V12.35C14.6422 12.2513 14.7119 12.1918 14.8357 12.0957C14.9151 12.0336 15.0057 11.9629 15.0709 11.8662C15.1427 11.7599 15.1788 11.6358 15.1758 11.5066C15.1788 11.3778 15.1427 11.2537 15.0709 11.1469C15.0057 11.0507 14.9151 10.98 14.8357 10.9179V10.9179ZM9.85431 4.61926C10.2107 4.47631 10.6145 4.31351 11.0254 4.31351C11.527 4.31351 11.8478 4.51497 12.1879 4.72864C12.3468 4.82886 12.5112 4.93214 12.691 5.00845C12.8376 5.07153 12.996 5.11478 13.162 5.14479V11.6307C12.8967 11.59 12.607 11.589 12.302 11.588C11.8355 11.5864 11.3533 11.5849 10.8895 11.4445C10.7311 11.3967 10.5723 11.3458 10.4164 11.2959C9.93476 11.1423 9.51468 11.0085 9.21783 10.9815C9.21223 10.9805 9.20561 10.98 9.1995 10.9795V4.83395C9.39757 4.80241 9.61244 4.71643 9.85431 4.61926V4.61926ZM5.33021 5.00845C5.51046 4.93214 5.67493 4.82886 5.83379 4.72864C6.17393 4.51497 6.49471 4.31351 6.99575 4.31351C7.40717 4.31351 7.81095 4.47631 8.16738 4.61926C8.4179 4.71999 8.63939 4.80852 8.84307 4.837V10.977C8.82983 10.9785 8.81761 10.98 8.80692 10.9815C8.51006 11.0085 8.08998 11.1423 7.6083 11.2959C7.45249 11.3458 7.29362 11.3967 7.13526 11.4445C6.6714 11.5849 6.1892 11.5864 5.72279 11.588C5.41779 11.589 5.12806 11.59 4.86227 11.6307V5.14428C5.02775 5.11427 5.18458 5.07102 5.33021 5.00845V5.00845ZM14.8642 11.5116C14.8662 11.5773 14.8489 11.6383 14.8122 11.6922C14.7746 11.7477 14.7109 11.7976 14.6437 11.85C14.5042 11.9588 14.33 12.0947 14.33 12.35V13.0307H9.01263H9.00906H3.69115V12.35C3.69115 12.0947 3.51751 11.9588 3.378 11.85C3.31079 11.7976 3.24714 11.7477 3.20946 11.6922C3.1728 11.6383 3.15548 11.5773 3.15752 11.5116V11.5066V11.502C3.15548 11.4363 3.1728 11.3753 3.20946 11.3214C3.24714 11.2654 3.31079 11.2161 3.378 11.1637C3.51751 11.0548 3.69115 10.919 3.69115 10.6636V7.60861C3.69115 7.35271 3.51751 7.21739 3.378 7.10852C3.31079 7.05561 3.24714 7.00626 3.20946 6.95081C3.1728 6.89637 3.15548 6.83583 3.15752 6.7697V6.76512V6.76054C3.15548 6.69441 3.1728 6.63387 3.20946 6.57994C3.24714 6.52398 3.31079 6.47463 3.378 6.42223C3.51751 6.31285 3.69115 6.17753 3.69115 5.92163V5.21296C3.69878 5.21296 3.70591 5.21296 3.71406 5.21296C3.99106 5.21296 4.2599 5.21042 4.5145 5.18905V12.2101H8.38684C8.46016 12.4874 8.71221 12.6919 9.01263 12.6919C9.31203 12.6919 9.56458 12.4874 9.6379 12.2101H13.5102V5.18956C13.7638 5.21042 14.0317 5.21296 14.3076 5.21296C14.3158 5.21296 14.3229 5.21296 14.33 5.21296V5.92163C14.33 6.17753 14.5042 6.31285 14.6437 6.42223C14.7109 6.47463 14.7746 6.52398 14.8122 6.57994C14.8489 6.63387 14.8662 6.69441 14.8642 6.76054V6.76512V6.7697C14.8662 6.83583 14.8489 6.89637 14.8122 6.95081C14.7746 7.00626 14.7109 7.05561 14.6437 7.10852C14.5042 7.21739 14.33 7.35271 14.33 7.60861V10.6636C14.33 10.919 14.5042 11.0548 14.6437 11.1637C14.7109 11.2161 14.7746 11.2654 14.8122 11.3214C14.8489 11.3753 14.8662 11.4363 14.8642 11.502V11.5066V11.5116Z" fill="#1D2658"/>
<path fill-rule="evenodd" clip-rule="evenodd" d="M49.5578 10.9179C49.4346 10.8218 49.3643 10.7623 49.3643 10.6636V7.60861C49.3643 7.50991 49.4346 7.45039 49.5578 7.35373C49.6378 7.29166 49.7274 7.22146 49.7931 7.1248C49.8649 7.01847 49.9015 6.89434 49.8985 6.76512C49.9015 6.63641 49.8649 6.51177 49.7931 6.40544C49.7274 6.30878 49.6378 6.23858 49.5578 6.17651C49.4346 6.07985 49.3643 6.02033 49.3643 5.92163V4.85634H49.1225C48.5552 4.85583 47.9478 4.84972 47.5532 4.68133C47.3994 4.6152 47.2538 4.52413 47.1 4.42696C46.7492 4.20719 46.352 3.9574 45.7476 3.9574C45.2674 3.9574 44.8295 4.13342 44.4431 4.28909C44.1839 4.39288 43.9395 4.49157 43.7704 4.49157H43.7343H43.7317H43.6956C43.526 4.49157 43.2816 4.39288 43.023 4.28909C42.636 4.13342 42.1981 3.9574 41.7179 3.9574C41.114 3.9574 40.7169 4.20719 40.366 4.42696C40.2123 4.52413 40.0666 4.6152 39.9129 4.68133C39.5182 4.84972 38.9103 4.85583 38.3441 4.85634H38.1017V5.92163C38.1017 6.02033 38.0314 6.07985 37.9082 6.17651C37.8288 6.23858 37.7381 6.30878 37.673 6.40544C37.6012 6.51177 37.5645 6.63641 37.5676 6.76512C37.5645 6.89434 37.6012 7.01847 37.673 7.1248C37.7381 7.22146 37.8288 7.29166 37.9082 7.35373C38.0314 7.45039 38.1017 7.50991 38.1017 7.60861V10.6636C38.1017 10.7623 38.0314 10.8218 37.9082 10.9179C37.8288 10.98 37.7381 11.0507 37.673 11.1469C37.6012 11.2537 37.5645 11.3778 37.5676 11.5066C37.5645 11.6358 37.6012 11.7599 37.673 11.8662C37.7381 11.9629 37.8288 12.0336 37.9082 12.0957C38.0314 12.1918 38.1017 12.2513 38.1017 12.35V13.3731L38.0935 13.3868H38.1017V13.3874H43.7333H49.3643V13.3868H49.3725L49.3643 13.3731V12.35C49.3643 12.2513 49.4346 12.1918 49.5578 12.0957C49.6378 12.0336 49.7274 11.9629 49.7931 11.8662C49.8649 11.7599 49.9015 11.6358 49.8985 11.5066C49.9015 11.3778 49.8649 11.2537 49.7931 11.1469C49.7274 11.0507 49.6378 10.98 49.5578 10.9179V10.9179ZM44.5765 4.61926C44.9329 4.47631 45.3367 4.31351 45.7476 4.31351C46.2491 4.31351 46.5699 4.51497 46.9096 4.72864C47.0689 4.82886 47.2334 4.93214 47.4131 5.00845C47.5603 5.07153 47.7176 5.11478 47.8846 5.14479V11.6307C47.6188 11.59 47.3291 11.589 47.0241 11.588C46.5577 11.5864 46.0755 11.5849 45.6111 11.4445C45.4533 11.3967 45.2944 11.3458 45.1386 11.2959C44.6569 11.1423 44.2368 11.0085 43.94 10.9815C43.9344 10.9805 43.9278 10.98 43.9217 10.9795V4.83395C44.1197 4.80241 44.3346 4.71643 44.5765 4.61926V4.61926ZM40.0529 5.00845C40.2326 4.93214 40.3971 4.82886 40.5565 4.72864C40.8961 4.51497 41.2169 4.31351 41.7179 4.31351C42.1293 4.31351 42.5331 4.47631 42.8895 4.61926C43.1396 4.71999 43.3616 4.80852 43.5647 4.837V10.977C43.5525 10.9785 43.5398 10.98 43.5291 10.9815C43.2322 11.0085 42.8122 11.1423 42.3305 11.2959C42.1747 11.3458 42.0153 11.3967 41.8574 11.4445C41.3936 11.5849 40.9114 11.5864 40.445 11.588C40.14 11.589 39.8502 11.59 39.5844 11.6307V5.14428C39.7499 5.11427 39.9067 5.07102 40.0529 5.00845V5.00845ZM49.5863 11.5116C49.5884 11.5773 49.5711 11.6383 49.5339 11.6922C49.4967 11.7477 49.4331 11.7976 49.3659 11.85C49.2263 11.9588 49.0527 12.0947 49.0527 12.35V13.0307H43.7343H43.7317H38.4133V12.35C38.4133 12.0947 38.2397 11.9588 38.1002 11.85C38.033 11.7976 37.9693 11.7477 37.9316 11.6922C37.8955 11.6383 37.8777 11.5773 37.8797 11.5116V11.5066V11.502C37.8777 11.4363 37.8955 11.3753 37.9316 11.3214C37.9693 11.2654 38.033 11.2161 38.1002 11.1637C38.2397 11.0548 38.4133 10.919 38.4133 10.6636V7.60861C38.4133 7.35271 38.2397 7.21739 38.1002 7.10852C38.033 7.05561 37.9693 7.00626 37.9316 6.95081C37.8955 6.89637 37.8777 6.83583 37.8797 6.7697V6.76512V6.76054C37.8777 6.69441 37.8955 6.63387 37.9316 6.57994C37.9693 6.52398 38.033 6.47463 38.1002 6.42223C38.2397 6.31285 38.4133 6.17753 38.4133 5.92163V5.21296C38.421 5.21296 38.4281 5.21296 38.4362 5.21296C38.7132 5.21296 38.9821 5.21042 39.2367 5.18905V12.2101H43.109C43.1823 12.4874 43.4344 12.6919 43.7343 12.6919C44.0342 12.6919 44.2867 12.4874 44.3601 12.2101H48.2324V5.18956C48.486 5.21042 48.7538 5.21296 49.0298 5.21296C49.0379 5.21296 49.0451 5.21296 49.0527 5.21296V5.92163C49.0527 6.17753 49.2263 6.31285 49.3659 6.42223C49.4331 6.47463 49.4967 6.52398 49.5339 6.57994C49.5711 6.63387 49.5884 6.69441 49.5863 6.76054V6.76512V6.7697C49.5884 6.83583 49.5711 6.89637 49.5339 6.95081C49.4967 7.00626 49.4331 7.05561 49.3659 7.10852C49.2263 7.21739 49.0527 7.35271 49.0527 7.60861V10.6636C49.0527 10.919 49.2263 11.0548 49.3659 11.1637C49.4331 11.2161 49.4967 11.2654 49.5339 11.3214C49.5711 11.3753 49.5884 11.4363 49.5863 11.502V11.5066V11.5116Z" fill="#1D2658"/>
<path fill-rule="evenodd" clip-rule="evenodd" d="M51.7421 0.999878H1.00195C1.00195 0.999878 1.00297 25.9387 1.00246 26.2709C0.968347 37.3436 7.13558 45.3872 12.316 50.1856C17.9629 55.417 24.3226 58.5315 26.3206 58.9665L26.372 58.9771L26.4235 58.9665C28.4215 58.5315 34.7812 55.417 40.4286 50.1856C45.608 45.3872 51.7757 37.3436 51.7421 26.2709C51.7411 25.9387 51.7421 0.999878 51.7421 0.999878V0.999878ZM51.0379 1.70346C51.0379 3.3182 51.0374 10.1689 51.0374 16.2279H1.70666C1.70666 10.1689 1.70666 3.3182 1.70615 1.70346H51.0379ZM11.4947 40.863C9.79759 39.1674 9.79759 36.4182 11.4947 34.7226C13.1918 33.0269 15.9434 33.0269 17.6406 34.7226C19.3377 36.4182 19.3377 39.1674 17.6406 40.863C15.9434 42.5592 13.1918 42.5592 11.4947 40.863V40.863ZM39.9494 49.6698C34.0821 55.1051 28.0004 57.8442 26.372 58.2547C24.7437 57.8442 18.662 55.1051 12.7946 49.6698C12.6521 49.5375 12.5085 49.4022 12.3644 49.2648L26.372 34.4061L40.3802 49.2648C40.2361 49.4022 40.092 49.5375 39.9494 49.6698V49.6698ZM22.0272 27.0213C22.0272 24.6241 23.9728 22.6802 26.372 22.6802C28.7718 22.6802 30.7169 24.6241 30.7169 27.0213C30.7169 29.419 28.7718 31.3624 26.372 31.3624C23.9728 31.3624 22.0272 29.419 22.0272 27.0213V27.0213ZM41.2494 40.863C39.5523 42.5592 36.8006 42.5592 35.1035 40.863C33.4064 39.1674 33.4064 36.4182 35.1035 34.7226C36.8006 33.0269 39.5523 33.0269 41.2494 34.7226C42.947 36.4182 42.947 39.1674 41.2494 40.863V40.863ZM48.2267 38.6658L26.372 17.6061L4.51736 38.6658C2.82076 35.1006 1.6919 30.9635 1.70666 26.2729C1.70666 26.1351 1.70666 21.8841 1.70666 16.932H51.0374C51.0374 21.8841 51.0374 26.1351 51.0379 26.2729C51.0522 30.9635 49.9233 35.1006 48.2267 38.6658V38.6658Z" fill="#1D2658"/>
</g>
</svg>
