<?xml version="1.0" encoding="utf-8" ?>
<svg xmlns="http://www.w3.org/2000/svg" xmlns:xlink="http://www.w3.org/1999/xlink" width="18" height="16">
	<path fill="#011F5B" d="M13.5 6C13.5 3.515625 11.484375 1.5 9 1.5C6.515625 1.5 4.5 3.515625 4.5 6C4.5 6.5093751 4.7406249 7.3125 5.2718749 8.3562498C5.7843752 9.3625002 6.4843755 10.43125 7.2125001 11.428125C7.8468752 12.3 8.484375 13.09375 9 13.712501C9.515625 13.093751 10.153126 12.3 10.7875 11.428125C11.512501 10.431251 12.2125 9.359375 12.728125 8.3562508C13.259375 7.3125 13.5 6.5093751 13.5 6ZM15 6C15 8.5968752 11.700001 12.84375 9.9937506 14.8625C9.4000006 15.565625 9 16 9 16C9 16 8.6000004 15.565625 8.0062504 14.8625C6.3000002 12.84375 3 8.5968752 3 6C3 2.6875 5.6875 0 9 0C12.3125 0 15 2.6875 15 6ZM10 6C10 5.4477158 9.5522842 5 9 5C8.4477158 5 8 5.4477158 8 6C8 6.5522847 8.4477158 7 9 7C9.5522842 7 10 6.5522847 10 6ZM6.5 6C6.5 5.1068363 6.9764977 4.2815189 7.7500005 3.8349361C8.5235033 3.3883543 9.4764977 3.3883543 10.25 3.8349361C11.023502 4.2815189 11.5 5.1068363 11.5 6C11.5 6.8931642 11.023502 7.7184815 10.25 8.1650639C9.4764977 8.6116457 8.5235033 8.6116457 7.7500005 8.1650639C6.9764977 7.7184815 6.5 6.8931642 6.5 6Z"/>
</svg>
