<?xml version="1.0" encoding="utf-8" ?>
<svg xmlns="http://www.w3.org/2000/svg" xmlns:xlink="http://www.w3.org/1999/xlink" width="26" height="24">
	<path fill="#011F5B" transform="translate(0.535156 0)" d="M12 1.5C15.751289 1.5 19.217623 3.5012884 21.093266 6.75C22.968912 9.9987116 22.968912 14.001288 21.093266 17.25C19.217623 20.498711 15.751289 22.5 12 22.5C8.2487106 22.5 4.7823772 20.498711 2.9067328 17.25C1.0310884 14.001288 1.0310884 9.9987116 2.9067328 6.75C4.7823772 3.5012884 8.2487106 1.5 12 1.5ZM12 24C16.287188 24 20.248711 21.712812 22.392305 18C24.535898 14.287188 24.535898 9.7128134 22.392305 6C20.248711 2.2871876 16.287188 0 12 0C7.7128129 0 3.7512882 2.2871876 1.6076946 6C-0.53589892 9.7128134 -0.53589892 14.287188 1.6076946 18C3.7512882 21.712812 7.7128129 24 12 24ZM17.029686 9.5296869L17.559376 8.999999L16.5 7.9406242L15.970313 8.4703121L10.5 13.940624L8.0296879 11.470312L7.5 10.940624L6.4406247 11.999999L6.9703121 12.529686L9.9703121 15.529686L10.5 16.059374L11.029688 15.529688L17.029686 9.5296879L17.029686 9.5296869Z"/>
</svg>
