<?xml version="1.0" encoding="utf-8" ?>
<svg xmlns="http://www.w3.org/2000/svg" xmlns:xlink="http://www.w3.org/1999/xlink" width="27" height="24">
	<path fill="#011F5B" d="M0 12C0 7.8562503 3.3562503 4.5 7.500001 4.5L11.250001 4.5L12.000001 4.5L12.000001 6L11.250001 6L7.500001 6C4.1859384 6 1.5000007 8.6859369 1.5000007 12C1.5000007 15.314063 4.1859384 18 7.500001 18L11.250001 18L12.000001 18L12.000001 19.5L11.250001 19.5L7.500001 19.5C3.3562503 19.5 0 16.143749 0 12ZM27 12C27 16.143749 23.643749 19.5 19.5 19.5L15.75 19.5L15 19.5L15 18L15.75 18L19.5 18C22.814064 18 25.5 15.314063 25.5 12C25.5 8.6859369 22.814064 6 19.5 6L15.75 6L15 6L15 4.5L15.75 4.5L19.5 4.5C23.643749 4.5 27 7.8562503 27 12ZM7.125 11.25L19.875 11.25L20.625 11.25L20.625 12.75L19.875 12.75L7.125 12.75L6.375 12.75L6.375 11.25L7.125 11.25Z"/>
</svg>
