<?xml version="1.0" encoding="utf-8" ?>
<svg xmlns="http://www.w3.org/2000/svg" xmlns:xlink="http://www.w3.org/1999/xlink" width="11" height="13">
	<path fill="#011F5B" transform="translate(0 0.5)" d="M3.375 -0.5L7.125 -0.5L7.5 0.25L10.5 0.25L10.5 1.75L0 1.75L0 0.25L3 0.25L3.375 -0.5ZM0.75 2.5L9.75 2.5L9.75 11.5L0.75 11.5L0.75 2.5ZM3.375 4L2.625 4L2.625 4.375L2.625 9.625L2.625 10L3.375 10L3.375 9.625L3.375 4.375L3.375 4ZM5.625 4L4.875 4L4.875 4.375L4.875 9.625L4.875 10L5.625 10L5.625 9.625L5.625 4.375L5.625 4ZM7.875 4L7.125 4L7.125 4.375L7.125 9.625L7.125 10L7.875 10L7.875 9.625L7.875 4.375L7.875 4Z"/>
</svg>
