<svg xmlns="http://www.w3.org/2000/svg" xmlns:xlink="http://www.w3.org/1999/xlink" width="12" height="13">
	<path fill="#011F5B" transform="translate(0 0.5)" d="M4.6875 -0.5L7.3125 -0.5L7.7156253 1.3374999C8.0859375 1.4898436 8.4328127 1.6914062 8.7468758 1.9328122L10.539845 1.3609374L11.852345 3.6343749L10.460156 4.9023438C10.485938 5.0968752 10.500001 5.2960939 10.500001 5.4976559C10.500001 5.6992188 10.485938 5.8984375 10.460156 6.0929685L11.852345 7.3609371L10.539845 9.6343746L8.7468758 9.0625C8.4328127 9.3039055 8.0859375 9.5054684 7.7156253 9.6578121L7.3125 11.5L4.6875 11.5L4.2843752 9.6625004C3.9140625 9.5101566 3.5671873 9.3085938 3.2531252 9.0671883L1.4601563 9.6367188L0.14765632 7.3632812L1.5398437 6.0953121C1.5140623 5.9007816 1.4999996 5.7015629 1.4999996 5.5C1.4999996 5.2984371 1.5140623 5.0992184 1.5398437 4.9046879L0.14765632 3.6367188L1.4601563 1.3632812L3.2531252 1.9351561C3.5671873 1.6937501 3.9140625 1.4921875 4.2843752 1.3398438L4.6875 -0.5ZM6 7.375C6.6698728 7.375 7.2888608 7.0176268 7.6237979 6.4375C7.9587345 5.8573732 7.9587345 5.1426272 7.6237979 4.5625C7.2888608 3.9823732 6.6698728 3.625 6 3.625C5.3301268 3.625 4.7111387 3.9823732 4.3762026 4.5625C4.0412655 5.1426272 4.0412655 5.8573732 4.3762026 6.4375C4.7111387 7.0176268 5.3301268 7.375 6 7.375Z"/>
</svg>
